<?xml version="1.0" standalone="no"?>
<!DOCTYPE svg PUBLIC "-//W3C//DTD SVG 20010904//EN"
 "http://www.w3.org/TR/2001/REC-SVG-20010904/DTD/svg10.dtd">
<svg version="1.0" xmlns="http://www.w3.org/2000/svg"
 width="350.000000pt" height="350.000000pt" viewBox="0 0 350.000000 350.000000"
 preserveAspectRatio="xMidYMid meet">
<metadata>
Created by potrace 1.14, written by Peter Selinger 2001-2017
</metadata>
<g transform="translate(0.000000,350.000000) scale(0.100000,-0.100000)"
fill="#000000" stroke="none">
<path d="M0 3046 l0 -364 53 -35 c74 -49 159 -85 220 -93 29 -4 58 -8 66 -9
57 -7 198 42 285 100 l56 37 0 364 c0 200 -3 364 -7 364 -3 0 -27 -14 -53 -30
-51 -33 -151 -76 -196 -85 -54 -10 -152 -6 -201 8 -56 17 -146 61 -182 88 -13
11 -28 19 -32 19 -5 0 -9 -164 -9 -364z"/>
<path d="M2808 3163 c-2 -137 -2 -858 0 -1603 l2 -1355 58 -37 c109 -70 150
-80 302 -76 147 4 176 13 278 87 l42 31 0 1600 c0 880 -3 1600 -7 1600 -5 0
-21 -9 -38 -21 -84 -57 -247 -111 -310 -103 -91 11 -121 19 -185 50 -40 19
-85 43 -100 54 -16 11 -31 20 -34 20 -3 0 -7 -111 -8 -247z"/>
<path d="M2175 3173 c-16 -32 -42 -78 -56 -103 -14 -25 -49 -90 -79 -145 -29
-55 -90 -167 -135 -250 -45 -82 -104 -190 -130 -240 -26 -49 -56 -103 -65
-120 -16 -28 -34 -61 -120 -220 -18 -33 -45 -84 -61 -112 -30 -55 -69 -126
-124 -228 -18 -33 -45 -82 -59 -109 -15 -26 -75 -137 -133 -245 -58 -108 -121
-222 -139 -254 -19 -32 -34 -60 -34 -62 0 -2 -35 -69 -78 -147 -43 -79 -98
-179 -122 -223 -24 -44 -62 -114 -84 -155 -23 -41 -48 -88 -56 -104 -13 -26
-15 83 -18 1043 -1 590 -5 1071 -10 1069 -4 -2 -41 -20 -82 -40 -157 -77 -290
-86 -435 -29 -44 17 -97 42 -117 56 l-38 26 0 -1186 0 -1185 48 -35 c26 -19
77 -46 113 -61 62 -24 74 -26 202 -23 91 3 140 8 149 17 6 6 18 12 25 12 15 0
86 44 121 74 20 18 22 28 22 119 l0 100 32 -63 c43 -86 136 -178 224 -221 66
-33 74 -34 201 -37 l132 -4 26 42 c14 23 29 49 33 58 4 9 23 46 43 82 42 76
201 366 251 460 31 56 296 545 885 1630 194 356 224 412 262 480 17 30 31 58
31 62 0 4 -37 6 -82 4 -100 -4 -206 16 -270 51 -82 44 -164 133 -209 226 -13
26 -25 47 -28 47 -4 0 -19 -26 -36 -57z"/>
</g>
</svg>
